<?xml version="1.0" encoding="UTF-8"?>
<svg id="Layer_1" data-name="Layer 1" xmlns="http://www.w3.org/2000/svg" viewBox="0 0 503.48 130">
  <defs>
    <style>
      .cls-1 {
        fill-rule: evenodd;
      }

      .cls-1, .cls-2 {
        fill: #d4dadd;
      }

      .cls-3 {
        fill: #7a97a5;
        stroke: #7a97a5;
        stroke-miterlimit: 10;
      }
    </style>
  </defs>
  <g id="OneDoor-search-logo-light">
    <path id="septima2" class="cls-2" d="M84.41,97.04c-3.45-1.81-7.38-2.72-11.81-2.72-6.72,0-10.07,1.59-10.07,4.77,0,1.72.9,2.91,2.72,3.56,1.54.59,4.34.97,8.37,1.12,5.29.21,8.96.8,11.01,1.78,2.41,1.13,3.61,3.12,3.61,5.97s-1.23,5.01-3.69,6.55-6.02,2.32-10.65,2.32c-6.33,0-11.47-1.4-15.42-4.19l1.65-2.36c4.04,2.55,8.65,3.83,13.82,3.83,3.47,0,6.17-.53,8.09-1.6s2.87-2.5,2.87-4.28c0-1.9-.92-3.24-2.77-4.01-1.58-.66-4.35-1.07-8.33-1.25-5.38-.21-9.03-.71-10.96-1.52-2.44-.95-3.65-2.75-3.65-5.39s1.17-4.49,3.5-5.9,5.65-2.12,9.96-2.12c5.44,0,9.93,1.08,13.46,3.25l-1.69,2.18h-.02,0ZM125.41,119.77h-27.1v-27.41h26.03v2.81h-23.13v8.69h16.08v2.81h-16.08v10.3h24.2v2.81h0ZM157.55,92.36c2.61,0,4.69.74,6.22,2.23s2.3,3.49,2.3,6.02-.82,4.43-2.46,5.9c-1.63,1.47-3.86,2.21-6.68,2.21h-17.38v11.05h-2.9v-27.41h20.9ZM157.37,105.91c1.75,0,3.1-.47,4.06-1.4s1.43-2.27,1.43-3.99c0-3.56-2.13-5.35-6.37-5.35h-16.94v10.74h17.83-.01ZM200.23,95.17h-13.1v24.6h-2.9v-24.6h-13.1v-2.81h29.1v2.81h0ZM212.36,119.77h-2.9v-27.41h2.9v27.41ZM262.9,119.77h-2.9v-24.42h-.09l-15.02,19.16-15.07-19.39h-.09v24.64h-2.9v-27.41h4.06l13.99,17.83,13.9-17.83h4.1v27.41h.02,0ZM305.45,119.77h-3.38l-3.74-7h-19.03l-3.83,7h-3.34l14.75-27.41h3.88l14.71,27.41h-.02ZM297.3,109.96l-7.98-14.84h-.09l-8.02,14.84h16.09Z"/>
    <path id="by2" class="cls-3" d="M11.86,120.39c-1.79,0-3.82-.91-5.53-2.46h-.12l-.28,1.99h-2.63v-28.32h3.26v7.72l-.08,3.5c1.75-1.55,3.9-2.7,6.04-2.7,5.01,0,7.68,3.86,7.68,9.82,0,6.6-3.94,10.46-8.35,10.46h.01,0ZM11.3,117.65c3.19,0,5.53-2.91,5.53-7.68,0-4.25-1.43-7.12-5.09-7.12-1.63,0-3.34.91-5.17,2.63v10.14c1.71,1.47,3.46,2.03,4.73,2.03h0ZM27.06,128.23c-.88,0-1.63-.16-2.27-.39l.64-2.59c.39.12.99.28,1.47.28,2.18,0,3.58-1.75,4.38-4.14l.44-1.43-7.76-19.37h3.38l3.94,10.7c.6,1.67,1.27,3.66,1.87,5.45h.16c.56-1.75,1.12-3.74,1.63-5.45l3.46-10.7h3.19l-7.27,20.92c-1.35,3.82-3.34,6.72-7.24,6.72h-.02,0Z"/>
    <g>
      <path id="Combined-Shape2" class="cls-1" d="M63.34,22.29c4.53-3.83,9.61-5.58,15.25-5.22,3.76.09,6.77,1.22,9.04,3.39s3.24,5.29,2.9,9.35v34.06h-10.5V31.45c-.19-2.34-.74-3.73-1.65-4.17-1.36-.67-3.77-1.35-6.58-.75-1.87.4-4.56,1.44-8.05,3.1l-.31,1.08.39,33.29h-11.22l-.06-46.37h8.77l2.01,4.15v.51h.02-.01Z"/>
      <path id="Combined-Shape-22" class="cls-1" d="M20.67,65.31c-5.89,0-12.77-2.62-16.29-8.35C.87,51.24,0,42.85,0,33.77,0,24.11,1.31,14.13,6.14,8.35c3.88-4.66,9.04-6.13,14.53-6.13,5.91,0,11.64.8,15.97,7.79,4.34,7.01,5.03,14.7,5.03,23.75s0,16.6-4.61,23.2c-4.61,6.59-10.24,8.35-16.4,8.35h.01ZM20.76,56.64c2.66,0,5.56-.77,8.09-6.65,1.55-3.6,1.85-10.93,1.85-16.25,0-6.25.38-10.97-2.25-17.05-2.64-6.07-5.35-5.86-7.69-5.86-2.04,0-5.58-.12-7.41,5.29-1.49,4.39-2.41,10.3-2.41,17.32s.65,12.81,2.41,17.31c2.21,5.64,5.44,5.89,7.41,5.89h0Z"/>
      <path id="Combined-Shape-32" class="cls-1" d="M112.96,44.46c.13,3.88.55,6.22,1.26,7.04,2.23,2.55,2.93,4.17,8.7,4.17,4.45,0,8.93-.73,13.42-2.19v9.25c-4.09,1.71-8.37,2.56-12.87,2.56-9.48,0-15.68-3.07-18.61-9.22-2.44-7.06-3.28-13.87-2.51-20.41.56-4.76,1.95-9.96,5.71-13.59,3.98-3.84,8.25-5.09,11.76-5.04,6.82.11,9.8.76,14.39,5.53,3.06,3.18,4.47,7.54,4.23,13.1v8.81h-25.49.01ZM113.09,37.04h14.71c.44-8.18-1.9-12.27-7.02-12.27s-7.68,4.09-7.69,12.27Z"/>
      <path id="Combined-Shape-42" class="cls-1" d="M150.09,3.21h18.61c7.01.71,12.12,3.38,15.33,8.01,4.81,6.94,5.26,11.83,5.26,22.36s-.11,15.74-5.26,23.01c-3.44,4.84-8.55,7.26-15.33,7.23h-18.61V3.22h0ZM161.09,12.29v42.87c5.34.34,9.53-.57,12.59-2.76,3.05-2.18,4.47-8.41,4.27-18.68.34-7.69-.45-13.35-2.4-16.97s-6.76-5.11-14.45-4.47h-.01Z"/>
      <path id="Combined-Shape-52" class="cls-1" d="M217.7,65.01c-5.49,0-9.57-1.11-13.42-4.78-4.64-4.43-7.02-12.07-7.02-19.35,0-6.72,2-14.13,6.03-18.51,3.96-4.3,8.4-5.62,14.41-5.62s10.43,1.61,14.35,5.62c4.3,4.4,5.97,11.53,5.97,18.51s-1.49,14.94-5.97,19.35c-3.88,3.83-8.73,4.78-14.35,4.78ZM217.79,56.49c1.72,0,5.61-.79,6.83-2.81,1.58-2.59,1.87-8.42,1.87-12.81s0-9.41-1.52-12.1c-2.04-3.6-5.41-3.62-7.19-3.62-2.1,0-5.69.11-7.41,3.62-1.59,3.26-1.59,8.48-1.59,12.1,0,4.27.53,10.21,2.03,12.81,1.25,2.15,5.21,2.81,6.98,2.81h0Z"/>
      <path id="Combined-Shape-62" class="cls-1" d="M265.34,65.01c-5.49,0-9.57-1.11-13.42-4.78-4.64-4.43-7.02-12.07-7.02-19.35,0-6.72,2-14.13,6.03-18.51,3.96-4.3,8.4-5.62,14.41-5.62s10.43,1.61,14.35,5.62c4.3,4.4,5.97,11.53,5.97,18.51s-1.49,14.94-5.97,19.35c-3.88,3.83-8.73,4.78-14.35,4.78ZM265.43,56.49c1.72,0,5.61-.79,6.83-2.81,1.58-2.59,1.87-8.42,1.87-12.81s0-9.41-1.52-12.1c-2.04-3.6-5.41-3.62-7.19-3.62-2.1,0-5.69.11-7.41,3.62-1.59,3.26-1.59,8.48-1.59,12.1,0,4.27.53,10.21,2.03,12.81,1.25,2.15,5.21,2.81,6.98,2.81h0Z"/>
      <path id="Combined-Shape-72" class="cls-1" d="M307.14,21.06c2.73-3.02,5.23-4.3,8.49-4.3,2.3,0,3.76.25,4.39.75v10.72c-1.64.12-2.65.12-3.04,0-1.09-.35-.98-.52-3.23-.52-3.04,0-5.25.82-6.62,2.47v33.72h-10.74V17.5h7.93l2.81,3.44v.12h0Z"/>
    </g>
    <g>
      <path class="cls-2" d="M331.24,58.74l4.03-3.28c2.02,2.65,4.54,4.16,7.31,4.16s5.42-1.76,5.42-4.03c0-1.95-1.64-3.02-5.54-5.17-4.1-2.27-6.62-4.85-6.62-8.57,0-5.61,5.1-9.64,11.28-9.64,4.03,0,7.31,1.89,9.7,4.41l-3.78,3.59c-1.57-1.58-3.46-2.9-5.92-2.9-2.83,0-4.91,1.76-4.91,3.91,0,2.27,2.65,3.34,5.29,4.85,4.6,2.46,6.87,4.91,6.87,8.69,0,5.99-5.17,9.89-12.29,9.89-3.91,0-8.51-2.39-10.84-5.92Z"/>
      <path class="cls-2" d="M376.6,32.21c7.18,0,9.83,4.98,9.83,11.4,0,2.71-.88,5.54-1.32,6.55h-18.84c-.69,6.55,2.96,9.32,7.62,9.32,2.21,0,4.6-1.2,6.3-2.46l2.52,4.35c-2.52,1.76-6.17,3.28-10.58,3.28-7.37,0-12.41-4.79-12.41-13.1,0-11.53,8.76-19.34,16.88-19.34ZM380.5,45.88c.19-.82.32-1.7.32-2.71,0-3.02-1.26-5.73-5.04-5.73s-7.43,3.15-8.95,8.44h13.67Z"/>
      <path class="cls-2" d="M390.58,53.38c0-11.84,8.06-21.17,16.63-21.17,3.02,0,5.73,1.7,7.12,4.35h.13l1.32-3.59h5.42l-6.17,30.93h-5.54l.32-4.28h-.19c-2.9,3.02-6.68,5.04-10.21,5.04-5.42,0-8.82-4.03-8.82-11.28ZM410.3,53.88l2.52-12.35c-1.39-2.65-3.34-3.78-5.23-3.78-5.23,0-10.02,6.74-10.02,14.68,0,4.54,1.76,6.68,4.6,6.68,2.65,0,5.61-1.51,8.13-5.23Z"/>
      <path class="cls-2" d="M430.21,32.97h5.48l-.57,5.99h.25c2.46-3.84,5.86-6.74,9.58-6.74,1.32,0,2.27.19,3.09.57l-2.27,5.92c-.76-.38-1.83-.5-2.9-.5-2.9,0-5.86,2.27-8.38,6.99l-3.65,18.71h-6.8l6.17-30.93Z"/>
      <path class="cls-2" d="M446.97,52.06c0-11.09,8.13-19.85,17.77-19.85,3.78,0,6.43,1.76,8.13,3.78l-3.78,4.09c-1.45-1.64-2.71-2.39-4.79-2.39-5.54,0-10.4,6.43-10.4,14.11,0,4.66,2.08,7.37,6.24,7.37,2.39,0,4.28-1.13,5.86-2.39l2.9,4.28c-2.33,1.7-5.48,3.59-10.14,3.59-6.8,0-11.78-4.6-11.78-12.6Z"/>
      <path class="cls-2" d="M482.88,19.42h6.74l-2.71,13.1-1.2,4.47h.25c3.15-2.71,6.49-4.79,10.21-4.79,5.17,0,7.31,2.83,7.31,7.81,0,1.45-.13,2.71-.5,4.35l-3.91,19.53h-6.74l3.78-18.65c.25-1.45.5-2.33.5-3.28,0-2.65-1.26-3.97-3.91-3.97-2.14,0-4.54,1.45-7.81,4.79l-4.16,21.11h-6.8l8.95-44.48Z"/>
    </g>
  </g>
</svg>